<svg width="772" height="468" viewBox="0 0 772 468" fill="none" xmlns="http://www.w3.org/2000/svg">
<rect width="772" height="468" fill="#060A2E"/>
<path d="M315.947 232.603C318.062 227.542 315.182 225.29 309.871 223.108C297.63 218.127 291.673 205.055 294.84 191.904C295.485 189.52 295.546 187.015 295.019 184.601C291.633 169.916 298.523 156.705 312.73 151.723C316.701 150.329 316.215 148.326 315.887 145.457C314.269 131.638 320.226 119.802 332.01 114.82C336.356 113.063 340.227 110.301 343.308 106.76C353.117 95.7114 370.362 95.0439 382.157 105.156C385.135 107.707 386.575 107.557 389.354 104.957C400.921 94.1472 420.975 96.379 430.059 109.251C431.231 110.895 432.363 112.34 434.398 113.097C451.623 119.443 457.451 131.349 455.247 146.294C454.81 149.283 455.634 150.568 458.523 151.763C473.862 158.11 479.64 169.488 475.897 185.558C475.403 187.995 475.471 190.514 476.095 192.921C479.719 209.2 469.99 220.757 458.751 224.224C455.296 225.29 454.115 226.526 454.949 230.471C457.927 244.678 448.267 258.417 435.827 261.625C432.472 262.492 429.99 264.395 427.528 266.717C416.081 277.496 400.285 277.785 388.61 267.404C386.475 265.511 385.165 265.232 382.852 267.314C370.73 278.164 353.773 277.367 342.415 265.581C340.873 263.859 338.865 262.623 336.637 262.024C323.135 258.587 315.262 247.717 315.947 232.603ZM423.269 195.082C425.155 191.366 425.016 189.105 420.181 187.54C408.039 183.505 400.98 172.656 401.725 160.511C402.459 148.555 410.739 138.921 422.842 135.842C428.798 134.328 432.938 135.553 433.951 139.13C435.063 143.036 432.958 144.988 425.939 146.573C419.387 148.067 414.919 151.953 413.43 158.528C412.01 164.825 413.579 170.484 418.86 174.529C424.142 178.574 429.96 179.251 435.976 175.804C440.196 173.383 444.713 171.719 449.617 171.819C452.884 171.889 455.495 173.353 455.683 177.069C455.872 180.497 453.698 182.131 450.61 182.748C449.806 182.918 448.962 182.918 448.148 183.057C438.438 184.691 433.087 192.283 434.805 201.987C436.066 209.11 443.273 215.038 450.392 214.819C458.831 214.55 464.758 208.891 465.433 200.403C463.973 199.735 462.891 200.821 461.809 201.399C458.416 203.152 454.655 204.071 450.839 204.079C447.701 204.079 445.259 202.505 445.041 199.098C444.822 195.69 446.778 193.548 450.312 193.12C451.126 193.02 451.96 193.02 452.774 192.891C458.94 191.894 464.499 186.494 465.899 180.148C467.16 174.389 464.579 168.382 459.257 164.675C450.61 158.698 442.38 158.897 433.236 165.672C430 168.083 427.031 168.202 424.539 165.134C422.047 162.065 423.546 159.305 426.267 157.014C430.064 153.8 434.543 151.499 439.362 150.289C441.347 149.761 443.204 149.293 443.819 146.931C447.264 133.89 438.518 122.851 426.942 123.678C420.757 124.126 415.316 126.049 411.405 131.23C409.191 134.218 406.212 135.165 403.224 132.893C399.968 130.423 400.523 127.125 402.757 124.096C403.919 122.512 405.279 121.047 406.55 119.533L417.699 113.346C414.946 110.797 411.333 109.39 407.588 109.408C403.842 109.427 400.243 110.87 397.515 113.446L397.446 113.495C392.343 116.803 390.119 121.326 391.568 127.444C391.568 128.111 391.568 128.779 391.568 129.436C391.469 144.859 391.261 160.272 391.3 175.685C391.3 186.584 395.847 191.506 406.778 193.199C410.164 193.728 413.182 195.073 412.735 199.048C412.288 203.023 409.191 204.498 405.497 204.129C402.036 203.885 398.66 202.943 395.569 201.359C392.492 199.665 391.132 200.363 391.161 204.099C391.271 218.854 391.251 233.609 391.261 248.375C391.261 254.96 393.941 259.962 400.106 262.572C406.719 265.381 412.963 264.694 418.672 260.011C425.423 254.502 426.445 247.737 423.467 239.926C422.097 236.369 422.474 233.151 426.445 231.756C430.655 230.272 432.402 233.201 433.633 236.578C434.752 239.35 435.445 242.276 435.688 245.256C435.748 246.492 435.46 248.155 437.138 248.584C438.647 248.972 439.531 247.588 440.424 246.721C442.649 244.347 444.082 241.337 444.521 238.108C444.961 234.879 444.386 231.593 442.876 228.708C438.339 220.458 429.464 217.748 419.704 221.564C413.678 223.935 411.633 226.964 411.375 233.43C411.226 237.326 412.199 240.982 413.142 244.678C413.946 247.807 413.211 250.387 410.015 251.583C406.5 252.898 404.227 251.005 402.896 247.996C401.434 244.266 400.67 240.298 400.643 236.29C399.997 224.463 405.061 215.975 415.038 211.432C418.136 210.027 423.05 210.784 424.172 207.765C425.294 204.747 423.646 200.692 423.179 197.085C423.219 196.418 423.249 195.75 423.269 195.082ZM304.133 199.367C305.959 202.804 305.959 205.534 307.657 207.765C312.313 213.893 319.769 216.334 326.52 213.693C329.803 212.468 332.586 210.182 334.432 207.195C336.278 204.208 337.081 200.69 336.716 197.195C335.882 189.543 330.402 184.083 322.41 183.047C318.667 182.569 315.381 181.563 315.609 176.91C315.798 173.204 318.896 171.51 323.84 171.988C328.397 172.427 332.338 174.489 336.389 176.402C343.12 179.56 349.801 178.096 354.378 172.775C356.63 170.208 358 166.981 358.284 163.572C358.568 160.163 357.752 156.753 355.957 153.846C352.829 148.665 347.855 146.871 342.236 146.134C339.119 145.706 336.935 143.962 337.203 140.505C337.471 137.048 339.566 135.115 343.16 135.304C345.136 135.334 347.105 135.561 349.037 135.982C354.768 137.452 359.868 140.749 363.572 145.377C367.276 150.005 369.384 155.714 369.578 161.647C370.005 173.074 362.509 183.774 350.993 187.6C347.736 188.686 346.207 189.991 347.27 193.578C348.297 197.457 348.197 201.55 346.982 205.374C346.327 207.736 346.823 208.901 349.523 209.439C354.94 210.359 359.953 212.897 363.909 216.722C371.663 224.394 370.005 234.088 369.637 243.353C369.399 249.441 366.083 252.479 362.062 251.752C358.2 251.055 357.237 247.926 358.935 241.52C362.479 228.05 355.887 219.601 342.058 219.97C339.045 219.934 336.093 220.815 333.59 222.498C331.087 224.181 329.152 226.586 328.039 229.395C326.734 232.113 326.261 235.159 326.68 238.147C327.098 241.135 328.39 243.931 330.392 246.183C331.385 247.348 332.378 248.763 333.966 248.504C336.021 248.185 335.326 246.123 335.555 244.808C336.2 241.211 336.696 237.575 338.533 234.327C339.873 231.896 342.028 230.7 344.768 231.537C345.99 231.865 347.044 232.642 347.719 233.715C348.394 234.788 348.642 236.078 348.411 237.326C348.018 239.438 347.484 241.522 346.813 243.562C344.371 253.137 350.308 261.695 360.802 263.777C370.283 265.641 379.595 259.414 379.943 249.829C380.509 234.416 380.131 218.944 380.131 203.561C380.131 200.732 379.268 199.576 376.25 201.16C373.01 202.857 369.428 203.791 365.775 203.89C362.172 204.039 358.905 203.312 358.439 199.038C357.972 194.764 361.119 193.827 364.395 193.17C364.882 193.08 365.388 193.08 365.875 193C374.482 191.625 379.863 185.847 379.943 177.139C380.092 159.893 379.893 142.647 379.943 125.391C379.943 118.836 376.686 114.432 371.395 111.284C365.706 107.916 357.724 108.942 353.792 113.535C358.935 115.916 363.969 118.387 367.602 122.9C370.074 125.969 371.901 129.078 368.387 132.505C365.696 135.145 362.817 134.368 359.312 130.293C354.209 124.375 343.249 121.785 336.607 124.933C329.469 128.32 325.875 135.793 326.997 144.48C327.394 147.629 328.615 149.591 331.961 150.309C336.814 151.441 341.31 153.766 345.046 157.074C347.915 159.505 349.315 162.434 346.545 165.672C344.013 168.661 341.045 167.943 338.176 165.811C336.504 164.461 334.701 163.283 332.795 162.294C324.852 158.628 317.476 160.491 310.953 165.582C306.267 169.248 304.093 174.389 305.453 180.586C307.3 189.045 313.127 192.432 321.129 193.19C324.157 193.478 326.093 195.242 326.212 198.291C326.332 202.585 323.542 203.96 319.72 203.989C314.478 204.039 309.891 201.708 304.113 199.367H304.133Z" fill="url(#paint0_linear_90_3076)"/>
<path d="M176.219 292.202H186.904V357.703H227.402V367H176.219V292.202Z" fill="#81ECFF"/>
<path d="M257.098 358.665C263.865 358.665 269.315 356.386 273.447 351.826L279.003 358.451C276.51 361.443 273.34 363.723 269.493 365.29C265.717 366.857 261.479 367.641 256.777 367.641C250.794 367.641 245.486 366.43 240.856 364.008C236.226 361.514 232.628 358.06 230.064 353.643C227.571 349.226 226.324 344.24 226.324 338.683C226.324 333.198 227.535 328.247 229.957 323.831C232.45 319.414 235.834 315.995 240.108 313.573C244.454 311.08 249.333 309.833 254.747 309.833C259.876 309.833 264.542 311.008 268.745 313.359C272.948 315.639 276.296 318.88 278.789 323.083C281.282 327.286 282.565 332.13 282.636 337.615L237.65 346.377C239.075 350.295 241.462 353.322 244.81 355.459C248.229 357.597 252.325 358.665 257.098 358.665ZM254.747 318.488C251.185 318.488 247.98 319.307 245.13 320.946C242.352 322.584 240.179 324.899 238.612 327.891C237.045 330.812 236.261 334.231 236.261 338.149V339.218L272.485 332.379C271.559 328.247 269.493 324.899 266.287 322.335C263.082 319.77 259.235 318.488 254.747 318.488Z" fill="#81ECFF"/>
<path d="M283.844 388.37C281.351 388.37 279.035 388.085 276.898 387.516C274.761 386.946 272.98 386.091 271.556 384.951L274.868 377.044C277.005 378.825 279.783 379.715 283.203 379.715C285.91 379.715 287.976 378.86 289.4 377.151C290.896 375.512 291.644 373.055 291.644 369.778V310.367H301.902V369.564C301.902 375.405 300.335 380 297.201 383.348C294.066 386.696 289.614 388.37 283.844 388.37ZM296.773 299.468C294.779 299.468 293.105 298.827 291.751 297.545C290.469 296.262 289.828 294.695 289.828 292.843C289.828 290.991 290.469 289.424 291.751 288.142C293.105 286.788 294.779 286.111 296.773 286.111C298.768 286.111 300.406 286.752 301.688 288.035C303.042 289.246 303.719 290.777 303.719 292.629C303.719 294.553 303.042 296.191 301.688 297.545C300.406 298.827 298.768 299.468 296.773 299.468Z" fill="#81ECFF"/>
<path d="M339.854 367.641C334.227 367.641 329.169 366.394 324.681 363.901C320.193 361.408 316.667 357.988 314.103 353.643C311.609 349.226 310.363 344.24 310.363 338.683C310.363 333.127 311.609 328.176 314.103 323.831C316.667 319.414 320.193 315.995 324.681 313.573C329.169 311.08 334.227 309.833 339.854 309.833C345.482 309.833 350.504 311.08 354.921 313.573C359.409 315.995 362.899 319.414 365.393 323.831C367.957 328.176 369.239 333.127 369.239 338.683C369.239 344.24 367.957 349.226 365.393 353.643C362.899 357.988 359.409 361.408 354.921 363.901C350.504 366.394 345.482 367.641 339.854 367.641ZM339.854 358.665C343.488 358.665 346.729 357.846 349.578 356.207C352.499 354.498 354.778 352.147 356.417 349.155C358.055 346.092 358.874 342.601 358.874 338.683C358.874 334.765 358.055 331.31 356.417 328.319C354.778 325.255 352.499 322.905 349.578 321.266C346.729 319.628 343.488 318.809 339.854 318.809C336.221 318.809 332.945 319.628 330.024 321.266C327.175 322.905 324.895 325.255 323.185 328.319C321.547 331.31 320.728 334.765 320.728 338.683C320.728 342.601 321.547 346.092 323.185 349.155C324.895 352.147 327.175 354.498 330.024 356.207C332.945 357.846 336.221 358.665 339.854 358.665Z" fill="#81ECFF"/>
<path d="M430.335 310.367V359.306C430.335 369.208 428.019 376.51 423.389 381.211C418.759 385.984 411.813 388.37 402.553 388.37C397.495 388.37 392.651 387.622 388.021 386.126C383.461 384.702 379.722 382.636 376.801 379.929L381.823 372.022C384.316 374.301 387.308 376.082 390.799 377.364C394.361 378.647 398.1 379.288 402.018 379.288C408.216 379.288 412.775 377.721 415.696 374.586C418.616 371.523 420.077 366.786 420.077 360.375V356.207C418.011 358.914 415.339 361.016 412.063 362.512C408.786 363.937 405.224 364.649 401.377 364.649C393.826 364.649 387.878 362.583 383.533 358.451C379.187 354.32 377.015 348.193 377.015 340.073V310.367H387.273V338.897C387.273 344.311 388.59 348.443 391.226 351.292C393.862 354.07 397.637 355.459 402.553 355.459C407.967 355.459 412.241 353.821 415.375 350.544C418.509 347.267 420.077 342.637 420.077 336.653V310.367H430.335Z" fill="#81ECFF"/>
<path d="M474.012 309.833C479.497 309.833 484.412 311.044 488.758 313.466C493.103 315.888 496.487 319.272 498.909 323.617C501.402 327.962 502.649 332.985 502.649 338.683C502.649 344.382 501.402 349.44 498.909 353.857C496.487 358.202 493.103 361.586 488.758 364.008C484.412 366.43 479.497 367.641 474.012 367.641C469.809 367.641 465.962 366.822 462.472 365.183C458.981 363.545 456.096 361.158 453.817 358.024V367H443.986V287.714H454.244V318.915C456.524 315.924 459.373 313.68 462.792 312.184C466.212 310.616 469.951 309.833 474.012 309.833ZM473.157 358.665C476.79 358.665 480.031 357.846 482.881 356.207C485.801 354.498 488.081 352.147 489.719 349.155C491.429 346.092 492.284 342.601 492.284 338.683C492.284 334.765 491.429 331.31 489.719 328.319C488.081 325.255 485.801 322.905 482.881 321.266C480.031 319.628 476.79 318.809 473.157 318.809C469.595 318.809 466.354 319.628 463.433 321.266C460.513 322.905 458.233 325.255 456.595 328.319C454.956 331.31 454.137 334.765 454.137 338.683C454.137 342.601 454.956 346.092 456.595 349.155C458.233 352.147 460.513 354.498 463.433 356.207C466.354 357.846 469.595 358.665 473.157 358.665Z" fill="#81ECFF"/>
<path d="M535.201 367.641C529.573 367.641 524.515 366.394 520.028 363.901C515.54 361.408 512.013 357.988 509.449 353.643C506.956 349.226 505.709 344.24 505.709 338.683C505.709 333.127 506.956 328.176 509.449 323.831C512.013 319.414 515.54 315.995 520.028 313.573C524.515 311.08 529.573 309.833 535.201 309.833C540.828 309.833 545.851 311.08 550.267 313.573C554.755 315.995 558.246 319.414 560.739 323.831C563.303 328.176 564.586 333.127 564.586 338.683C564.586 344.24 563.303 349.226 560.739 353.643C558.246 357.988 554.755 361.408 550.267 363.901C545.851 366.394 540.828 367.641 535.201 367.641ZM535.201 358.665C538.834 358.665 542.075 357.846 544.924 356.207C547.845 354.498 550.125 352.147 551.763 349.155C553.402 346.092 554.221 342.601 554.221 338.683C554.221 334.765 553.402 331.31 551.763 328.319C550.125 325.255 547.845 322.905 544.924 321.266C542.075 319.628 538.834 318.809 535.201 318.809C531.568 318.809 528.291 319.628 525.37 321.266C522.521 322.905 520.241 325.255 518.532 328.319C516.893 331.31 516.074 334.765 516.074 338.683C516.074 342.601 516.893 346.092 518.532 349.155C520.241 352.147 522.521 354.498 525.37 356.207C528.291 357.846 531.568 358.665 535.201 358.665Z" fill="#81ECFF"/>
<path d="M602.707 363.687C601.211 364.969 599.359 365.967 597.151 366.679C594.943 367.32 592.663 367.641 590.312 367.641C584.613 367.641 580.197 366.109 577.062 363.046C573.928 359.983 572.361 355.602 572.361 349.903V297.972H582.619V310.367H598.861V318.809H582.619V349.476C582.619 352.539 583.367 354.89 584.863 356.528C586.43 358.166 588.638 358.986 591.488 358.986C594.622 358.986 597.293 358.095 599.502 356.314L602.707 363.687Z" fill="#81ECFF"/>
<defs>
<linearGradient id="paint0_linear_90_3076" x1="463" y1="240" x2="307.5" y2="131.5" gradientUnits="userSpaceOnUse">
<stop stop-color="#4BC7E8"/>
<stop offset="0.409375" stop-color="#68D2CC"/>
<stop offset="1" stop-color="#6CF0A5"/>
</linearGradient>
</defs>
</svg>
